<?xml version="1.0" encoding="UTF-8" standalone="no"?>
<!-- Created with Inkscape (http://www.inkscape.org/) -->

<svg
   xmlns:dc="http://purl.org/dc/elements/1.1/"
   xmlns:cc="http://creativecommons.org/ns#"
   xmlns:rdf="http://www.w3.org/1999/02/22-rdf-syntax-ns#"
   xmlns:svg="http://www.w3.org/2000/svg"
   xmlns="http://www.w3.org/2000/svg"
   xmlns:sodipodi="http://sodipodi.sourceforge.net/DTD/sodipodi-0.dtd"
   xmlns:inkscape="http://www.inkscape.org/namespaces/inkscape"
   width="24mm"
   height="24mm"
   viewBox="0 0 24 24"
   version="1.1"
   id="svg1923"
   sodipodi:docname="face.svg"
   inkscape:version="0.92.4 (5da689c313, 2019-01-14)">
  <defs
     id="defs1917">
    <clipPath
       clipPathUnits="userSpaceOnUse"
       id="clipPath2684">
      <path
         style="fill:none;fill-rule:evenodd;stroke:#000000;stroke-width:0.26458332px;stroke-linecap:butt;stroke-linejoin:miter;stroke-opacity:1"
         d="m 17.317394,22.763097 c 0,0 -0.04677,2.233371 0.01169,2.291836 0.05847,0.05847 0.95883,1.204383 1.239463,1.438243 0.280633,0.233863 1.905965,0.841899 1.905965,0.841899 0,0 1.3447,-0.268938 1.356393,-0.327403 0.01169,-0.05846 0.444336,-0.596346 0.163703,-1.017296 -0.280633,-0.42095 -0.724969,-0.724969 -1.087453,-0.853592 -0.362484,-0.128624 -0.526187,0.04677 -0.80682,-0.374177 -0.280633,-0.42095 -0.26894,-0.304019 -0.479415,-0.701583 -0.210474,-0.397563 -0.233861,-0.853592 -0.479414,-1.028987 -0.245554,-0.175396 0.04677,-0.339099 -0.68989,-0.350792 -0.736661,-0.01169 -1.122532,0.128624 -1.134225,0.08185 z"
         id="path2686"
         inkscape:connector-curvature="0" />
    </clipPath>
    <filter
       style="color-interpolation-filters:sRGB"
       inkscape:label="Brilliance"
       id="filter2690">
      <feColorMatrix
         values="1.14 -0.18 -0.18 0 9.95 -0.18 1.14 -0.18 0 9.95 -0.18 -0.18 1.14 0 9.95 0 0 0 1 0 "
         id="feColorMatrix2688" />
    </filter>
    <filter
       style="color-interpolation-filters:sRGB"
       inkscape:label="Brilliance"
       id="filter2680">
      <feColorMatrix
         values="1.14 -0.18 -0.18 0 9.95 -0.18 1.14 -0.18 0 9.95 -0.18 -0.18 1.14 0 9.95 0 0 0 1 0 "
         id="feColorMatrix2678" />
    </filter>
    <filter
       style="color-interpolation-filters:sRGB"
       inkscape:label="Brilliance"
       id="filter2610">
      <feColorMatrix
         values="1.14 -0.18 -0.18 0 9.95 -0.18 1.14 -0.18 0 9.95 -0.18 -0.18 1.14 0 9.95 0 0 0 1 0 "
         id="feColorMatrix2608" />
    </filter>
    <filter
       style="color-interpolation-filters:sRGB"
       inkscape:label="Brilliance"
       id="filter2606">
      <feColorMatrix
         values="1.14 -0.18 -0.18 0 9.95 -0.18 1.14 -0.18 0 9.95 -0.18 -0.18 1.14 0 9.95 0 0 0 1 0 "
         id="feColorMatrix2604" />
    </filter>
  </defs>
  <sodipodi:namedview
     id="base"
     pagecolor="#ffffff"
     bordercolor="#666666"
     borderopacity="1.0"
     inkscape:pageopacity="0.0"
     inkscape:pageshadow="2"
     inkscape:zoom="3.959798"
     inkscape:cx="120.59392"
     inkscape:cy="31.761186"
     inkscape:document-units="mm"
     inkscape:current-layer="layer1"
     showgrid="false"
     inkscape:window-width="1366"
     inkscape:window-height="706"
     inkscape:window-x="-8"
     inkscape:window-y="-8"
     inkscape:window-maximized="1" />
  <metadata
     id="metadata1920">
    <rdf:RDF>
      <cc:Work
         rdf:about="">
        <dc:format>image/svg+xml</dc:format>
        <dc:type
           rdf:resource="http://purl.org/dc/dcmitype/StillImage" />
        <dc:title></dc:title>
      </cc:Work>
    </rdf:RDF>
  </metadata>
  <g
     inkscape:label="Camada 1"
     inkscape:groupmode="layer"
     id="layer1"
     transform="translate(0,-273)">
    <g
       transform="translate(-637.1694,301.78347)"
       id="g1898">
      <ellipse
         inkscape:export-ydpi="300"
         inkscape:export-xdpi="300"
         style="opacity:1;fill:#f2c4be;fill-opacity:1;stroke:#a3d9b8;stroke-width:0.02914643;stroke-linecap:round;stroke-linejoin:round;stroke-miterlimit:4;stroke-dasharray:none;stroke-dashoffset:0;stroke-opacity:1"
         id="ellipse5827"
         cx="649.03217"
         cy="-16.748941"
         rx="11.041808"
         ry="10.98823" />
      <path
         inkscape:export-ydpi="300"
         inkscape:export-xdpi="300"
         style="opacity:1;fill:#ffffff;fill-opacity:1;stroke:#87c4de;stroke-width:0.04373163;stroke-linecap:round;stroke-linejoin:round;stroke-miterlimit:4;stroke-dasharray:none;stroke-dashoffset:0;stroke-opacity:1"
         d="m 652.47429,-23.694718 -1.60119,0.0429 c -2.27968,0.06003 -2.86889,0.30106 -3.48112,1.450888 -0.28558,0.536064 -0.31302,0.666437 -0.35073,1.631785 l -0.0431,1.048969 h -0.70588 -0.70504 v 1.369752 1.369835 h 0.71705 0.71703 v 3.431751 c 0,1.887376 0.0244,3.4580021 0.06,3.4904231 0.0328,0.03443 0.70248,0.06003 1.48211,0.06003 h 1.41812 v -3.4904231 -3.490507 h 1.12857 1.12849 l 0.11676,-1.215278 c 0.0603,-0.668155 0.11508,-1.284328 0.11508,-1.369415 -0.002,-0.138935 -0.1225,-0.154367 -1.20675,-0.154367 h -1.20521 l 0.0328,-0.697313 c 0.0517,-1.011316 0.12418,-1.069383 1.38709,-1.069383 h 0.98908 v -1.202069 z"
         id="path5837"
         inkscape:connector-curvature="0" />
    </g>
  </g>
</svg>
