<svg xmlns:dc="http://purl.org/dc/elements/1.1/" xmlns:cc="http://creativecommons.org/ns#" xmlns:rdf="http://www.w3.org/1999/02/22-rdf-syntax-ns#" xmlns:svg="http://www.w3.org/2000/svg" xmlns="http://www.w3.org/2000/svg" xmlns:sodipodi="http://sodipodi.sourceforge.net/DTD/sodipodi-0.dtd" xmlns:inkscape="http://www.inkscape.org/namespaces/inkscape" width="41.40496399288463" height="34.19009093008452" version="1.1" sodipodi:docname="logo.svg" inkscape:version="0.92.4 (5da689c313, 2019-01-14)" style=""><rect id="backgroundrect" width="100%" height="100%" x="0" y="0" fill="none" stroke="none" class="" style=""/>
  <defs id="defs1917">
    <clipPath clipPathUnits="userSpaceOnUse" id="clipPath2684">
      <path style="fill:none;fill-rule:evenodd;stroke:#000000;stroke-width:0.26458332px;stroke-linecap:butt;stroke-linejoin:miter;stroke-opacity:1" d="m 17.317394,22.763097 c 0,0 -0.04677,2.233371 0.01169,2.291836 0.05847,0.05847 0.95883,1.204383 1.239463,1.438243 0.280633,0.233863 1.905965,0.841899 1.905965,0.841899 0,0 1.3447,-0.268938 1.356393,-0.327403 0.01169,-0.05846 0.444336,-0.596346 0.163703,-1.017296 -0.280633,-0.42095 -0.724969,-0.724969 -1.087453,-0.853592 -0.362484,-0.128624 -0.526187,0.04677 -0.80682,-0.374177 -0.280633,-0.42095 -0.26894,-0.304019 -0.479415,-0.701583 -0.210474,-0.397563 -0.233861,-0.853592 -0.479414,-1.028987 -0.245554,-0.175396 0.04677,-0.339099 -0.68989,-0.350792 -0.736661,-0.01169 -1.122532,0.128624 -1.134225,0.08185 z" id="path2686" inkscape:connector-curvature="0"/>
    </clipPath>
    <filter style="color-interpolation-filters:sRGB" inkscape:label="Brilliance" id="filter2690">
      <feColorMatrix values="1.14 -0.18 -0.18 0 9.95 -0.18 1.14 -0.18 0 9.95 -0.18 -0.18 1.14 0 9.95 0 0 0 1 0 " id="feColorMatrix2688"/>
    </filter>
    <filter style="color-interpolation-filters:sRGB" inkscape:label="Brilliance" id="filter2680">
      <feColorMatrix values="1.14 -0.18 -0.18 0 9.95 -0.18 1.14 -0.18 0 9.95 -0.18 -0.18 1.14 0 9.95 0 0 0 1 0 " id="feColorMatrix2678"/>
    </filter>
    <filter style="color-interpolation-filters:sRGB" inkscape:label="Brilliance" id="filter2610">
      <feColorMatrix values="1.14 -0.18 -0.18 0 9.95 -0.18 1.14 -0.18 0 9.95 -0.18 -0.18 1.14 0 9.95 0 0 0 1 0 " id="feColorMatrix2608"/>
    </filter>
    <filter style="color-interpolation-filters:sRGB" inkscape:label="Brilliance" id="filter2606">
      <feColorMatrix values="1.14 -0.18 -0.18 0 9.95 -0.18 1.14 -0.18 0 9.95 -0.18 -0.18 1.14 0 9.95 0 0 0 1 0 " id="feColorMatrix2604"/>
    </filter>
  </defs>
  <sodipodi:namedview id="base" pagecolor="#ffffff" bordercolor="#666666" borderopacity="1.0" inkscape:pageopacity="0.0" inkscape:pageshadow="2" inkscape:zoom="0.35" inkscape:cx="-4.8315935" inkscape:cy="716.04542" inkscape:document-units="mm" inkscape:current-layer="layer1" showgrid="false" inkscape:window-width="1440" inkscape:window-height="838" inkscape:window-x="-8" inkscape:window-y="-8" inkscape:window-maximized="1"/>
  <metadata id="metadata1920">
    <rdf:RDF>
      <cc:Work rdf:about="">
        <dc:format>image/svg+xml</dc:format>
        <dc:type rdf:resource="http://purl.org/dc/dcmitype/StillImage"/>
        <dc:title/>
      </cc:Work>
    </rdf:RDF>
  </metadata>
  
<g class="currentLayer" style=""><title>Layer 1</title><g inkscape:label="Camada 1" inkscape:groupmode="layer" id="layer1" class="">
    <g id="g9802" inkscape:export-xdpi="300" inkscape:export-ydpi="300">
      <path sodipodi:nodetypes="ccsc" inkscape:connector-curvature="0" id="path9786" d="m30.943707878631812,20.47542449354401 c1.57753083072,-3.0779358251929003 2.5950824581843,0.7293994414299001 0.8228946881400001,2.1606041752235 c-0.6391654363410002,0.09349524671010007 -1.3233056699232002,-0.21955234774660012 -1.8268262076708002,-0.6443353891436 c-1.0149792915344,-0.8562528921646001 -1.2960970552347,-2.1665262360744 1.0039504802379,-1.5162687860799 z" style="fill:#e0b340;fill-opacity:1;fill-rule:evenodd;stroke:none;stroke-width:0.08655377px;stroke-linecap:butt;stroke-linejoin:miter;stroke-opacity:1" stroke-width="0"/>
      <path inkscape:transform-center-y="-0.00012171132" inkscape:transform-center-x="1.5879704" sodipodi:nodetypes="ccsc" inkscape:connector-curvature="0" id="path9788" d="m25.939604381035508,26.4869988426631 c-1.7930003062044002,-3.4983642241926 -2.9495212762403002,0.8290253167690002 -0.9352558384146001,2.4557212609993 c0.7264668520651001,0.10627476329550004 1.5040644109432,-0.24953554590740012 2.0763364726353997,-0.7323509915018 c1.1536136616139,-0.9732025335573999 1.4731268571917,-2.4624523120198 -1.1410806342208,-1.7233702694975 z" style="fill:#e0b340;fill-opacity:1;fill-rule:evenodd;stroke:none;stroke-width:0.0983764px;stroke-linecap:butt;stroke-linejoin:miter;stroke-opacity:1" stroke-width="0"/>
      <path style="fill:#e0b340;fill-opacity:1;fill-rule:evenodd;stroke:none;stroke-width:0.07737248px;stroke-linecap:butt;stroke-linejoin:miter;stroke-opacity:1" d="m19.383693412018232,28.61023146419251 c1.4101836298554,-2.7514450894023 2.3197793113280003,0.6520334362262001 0.7355932724159001,1.9314071477986996 c-0.5713745882228001,0.08357247666110003 -1.1829332350262,-0.19626227919210007 -1.6330351406374004,-0.5759946805195002 c-0.9073077561492001,-0.7654121444484999 -1.1586066478169,-1.9366971850796 0.8974418682215002,-1.3554124672792 z" id="path9790" inkscape:connector-curvature="0" sodipodi:nodetypes="ccsc" stroke-width="0"/>
      <path sodipodi:nodetypes="ccsc" inkscape:connector-curvature="0" id="path9792" d="m11.998131422897615,30.11205851169791 c-1.8165747853654002,-3.5443439389100995 -2.9882959222597996,0.8399150828801002 -0.9475866182653,2.4879797440120996 c0.7360293686792001,0.10768417585660002 1.5238341082128,-0.2528031077643001 2.1036462110951,-0.7419703902372 c1.1687759070582,-0.9859946906142001 1.4924983796122002,-2.4948055985681 -1.1560785535369,-1.7460219942463002 z" style="fill:#e0b340;fill-opacity:1;fill-rule:evenodd;stroke:none;stroke-width:0.09966909px;stroke-linecap:butt;stroke-linejoin:miter;stroke-opacity:1" stroke-width="0"/>
      <path style="fill:#e0b340;fill-opacity:1;fill-rule:evenodd;stroke:none;stroke-width:0.0983764px;stroke-linecap:butt;stroke-linejoin:miter;stroke-opacity:1" d="m17.1275778348963,21.0101101135283 c-1.7930003062044002,-3.4983579039569 -2.9495212762403002,0.8290253167690002 -0.9352811193574001,2.4557275812349997 c0.7264921330078999,0.10627476329550004 1.5040644109432,-0.24953554590740012 2.0763617535782,-0.7323573117375 c1.1535947009068,-0.9732025335573999 1.4731268571917,-2.4624459917841 -1.1410806342208,-1.7233765897331998 z" id="path9794" inkscape:connector-curvature="0" sodipodi:nodetypes="ccsc" inkscape:transform-center-x="1.5879704" inkscape:transform-center-y="-0.00012171132" stroke-width="0"/>
      <path style="fill:#e0b340;fill-opacity:1;fill-rule:evenodd;stroke:none;stroke-width:0.04982859px;stroke-linecap:butt;stroke-linejoin:miter;stroke-opacity:1" d="m23.078591685538015,22.659666350285505 c0.9081673082044001,-1.7719476010877 1.4939583540589,0.4199101396723001 0.4737206264221,1.2438539869385 c-0.36795148198260014,0.05384840816400003 -0.7618159303352001,-0.12641103423570005 -1.0516745800086,-0.37094727370440017 c-0.5843247511720999,-0.4929341429501 -0.7461733469776999,-1.2472542737451 0.5779539535865,-0.8729067132341002 z" id="path9796" inkscape:connector-curvature="0" sodipodi:nodetypes="ccsc" stroke-width="0"/>
      <path style="fill:#e0b340;fill-opacity:1;fill-rule:evenodd;stroke:none;stroke-width:0.07083253px;stroke-linecap:butt;stroke-linejoin:miter;stroke-opacity:1" d="m11.066263230818208,24.063927919289995 c1.2909839845534001,-2.5188730561137 2.1237003189712,0.5969146606865001 0.6733958328922003,1.7681554596677 c-0.5230500660606,0.076538054327 -1.0829344657808,-0.1796590200082 -1.4950075131851,-0.527297264451 c-0.8305864149868999,-0.7007308522947002 -1.0606745956454,-1.7730094006853 0.8216116802929,-1.2408708356881 z" id="path9798" inkscape:connector-curvature="0" sodipodi:nodetypes="ccsc" inkscape:transform-center-x="-1.1433629" inkscape:transform-center-y="-8.8095573e-05" stroke-width="0"/>
      <path inkscape:export-ydpi="300" inkscape:export-xdpi="300" inkscape:export-filename="C:\Users\MICRO\path1131.png" style="fill:#f5c6c0;fill-opacity:1;fill-rule:evenodd;stroke:#f5c6c0;stroke-width:0.72012961;stroke-linecap:butt;stroke-linejoin:miter;stroke-miterlimit:4;stroke-dasharray:none;stroke-opacity:1" d="m12.9189518429734,11.952498168794193 c-2.6286239490442,-7.668626385416499 4.7802597098094,-9.6393327587978 7.842565592116199,-9.7204909054215 c3.2409599848387,-0.0858793626916 11.1047994903211,0.2274842435501001 10.9707346506527,8.538891240128 c6.3777624853414,-2.5814244288366 9.4303036034917,5.6795976487409 5.2439185209970995,6.739482214923799 c-1.3515381627951,-0.08751630373790004 -36.112872434209294,0.9190191529012999 -35.572258433138394,0.5251547045487002 c-2.5235942721816,-1.1544795339048002 -1.0483438157947,-4.4233939212446005 5.3520703942955,-3.2822184834883004 c0.37120640336810007,0.06621710942890004 -0.01605339867800001,-0.8236720771311001 0.3926762440410001,-1.3937257360925999 c0.9046026952696,-1.2638828138718001 3.0646380492801,-2.6380284597658 5.7702930310359,-1.4070930345980999 z" id="path9800" inkscape:connector-curvature="0" sodipodi:nodetypes="cscccssc" stroke-width="0"/>
    </g>
  </g></g></svg>