<?xml version="1.0" encoding="UTF-8" standalone="no"?>
<!-- Created with Inkscape (http://www.inkscape.org/) -->

<svg
   xmlns:dc="http://purl.org/dc/elements/1.1/"
   xmlns:cc="http://creativecommons.org/ns#"
   xmlns:rdf="http://www.w3.org/1999/02/22-rdf-syntax-ns#"
   xmlns:svg="http://www.w3.org/2000/svg"
   xmlns="http://www.w3.org/2000/svg"
   xmlns:sodipodi="http://sodipodi.sourceforge.net/DTD/sodipodi-0.dtd"
   xmlns:inkscape="http://www.inkscape.org/namespaces/inkscape"
   width="41mm"
   height="32mm"
   viewBox="0 0 41 32"
   version="1.1"
   id="svg1923"
   sodipodi:docname="logo.svg"
   inkscape:version="0.92.4 (5da689c313, 2019-01-14)">
  <defs
     id="defs1917" />
  <sodipodi:namedview
     id="base"
     pagecolor="#ffffff"
     bordercolor="#666666"
     borderopacity="1.0"
     inkscape:pageopacity="0.0"
     inkscape:pageshadow="2"
     inkscape:zoom="2.8"
     inkscape:cx="49.989279"
     inkscape:cy="62.837104"
     inkscape:document-units="mm"
     inkscape:current-layer="layer1"
     showgrid="false"
     inkscape:window-width="1366"
     inkscape:window-height="706"
     inkscape:window-x="-8"
     inkscape:window-y="-8"
     inkscape:window-maximized="1" />
  <metadata
     id="metadata1920">
    <rdf:RDF>
      <cc:Work
         rdf:about="">
        <dc:format>image/svg+xml</dc:format>
        <dc:type
           rdf:resource="http://purl.org/dc/dcmitype/StillImage" />
        <dc:title></dc:title>
      </cc:Work>
    </rdf:RDF>
  </metadata>
  <g
     inkscape:label="Camada 1"
     inkscape:groupmode="layer"
     id="layer1"
     transform="translate(0,-265)">
    <g
       transform="matrix(0.63202357,0,0,0.63202357,-234.67746,232.20412)"
       id="g9802"
       inkscape:export-xdpi="300"
       inkscape:export-ydpi="300">
      <path
         sodipodi:nodetypes="ccsc"
         inkscape:connector-curvature="0"
         id="path9786"
         d="m 421.96093,82.41693 c 2.496,-4.86997 4.10599,1.15407 1.302,3.41855 -1.0113,0.14793 -2.09376,-0.34738 -2.89044,-1.01948 -1.60592,-1.35478 -2.05071,-3.42792 1.58847,-2.39907 z"
         style="fill:#e0b340;fill-opacity:1;fill-rule:evenodd;stroke:none;stroke-width:0.08655377px;stroke-linecap:butt;stroke-linejoin:miter;stroke-opacity:1" />
      <path
         inkscape:transform-center-y="-0.00012171132"
         inkscape:transform-center-x="1.5879704"
         sodipodi:nodetypes="ccsc"
         inkscape:connector-curvature="0"
         id="path9788"
         d="m 414.04334,91.92856 c -2.83692,-5.53518 -4.66679,1.3117 -1.47978,3.88549 1.14943,0.16815 2.37976,-0.39482 3.28522,-1.15874 1.82527,-1.53982 2.33081,-3.89614 -1.80544,-2.72675 z"
         style="fill:#e0b340;fill-opacity:1;fill-rule:evenodd;stroke:none;stroke-width:0.0983764px;stroke-linecap:butt;stroke-linejoin:miter;stroke-opacity:1" />
      <path
         style="fill:#e0b340;fill-opacity:1;fill-rule:evenodd;stroke:none;stroke-width:0.07737248px;stroke-linecap:butt;stroke-linejoin:miter;stroke-opacity:1"
         d="m 403.67045,95.28798 c 2.23122,-4.35339 3.6704,1.03166 1.16387,3.05591 -0.90404,0.13223 -1.87166,-0.31053 -2.58382,-0.91135 -1.43556,-1.21105 -1.83317,-3.06428 1.41995,-2.14456 z"
         id="path9790"
         inkscape:connector-curvature="0"
         sodipodi:nodetypes="ccsc" />
      <path
         sodipodi:nodetypes="ccsc"
         inkscape:connector-curvature="0"
         id="path9792"
         d="m 391.98487,97.6642 c -2.87422,-5.60793 -4.72814,1.32893 -1.49929,3.93653 1.16456,0.17038 2.41104,-0.39999 3.32843,-1.17396 1.84926,-1.56006 2.36146,-3.94733 -1.82917,-2.76259 z"
         style="fill:#e0b340;fill-opacity:1;fill-rule:evenodd;stroke:none;stroke-width:0.09966909px;stroke-linecap:butt;stroke-linejoin:miter;stroke-opacity:1" />
      <path
         style="fill:#e0b340;fill-opacity:1;fill-rule:evenodd;stroke:none;stroke-width:0.0983764px;stroke-linecap:butt;stroke-linejoin:miter;stroke-opacity:1"
         d="m 400.10078,83.26292 c -2.83692,-5.53517 -4.66679,1.3117 -1.47982,3.8855 1.14947,0.16815 2.37976,-0.39482 3.28526,-1.15875 1.82524,-1.53982 2.33081,-3.89613 -1.80544,-2.72676 z"
         id="path9794"
         inkscape:connector-curvature="0"
         sodipodi:nodetypes="ccsc"
         inkscape:transform-center-x="1.5879704"
         inkscape:transform-center-y="-0.00012171132" />
      <path
         style="fill:#e0b340;fill-opacity:1;fill-rule:evenodd;stroke:none;stroke-width:0.04982859px;stroke-linecap:butt;stroke-linejoin:miter;stroke-opacity:1"
         d="m 409.51659,85.87288 c 1.43692,-2.80361 2.36377,0.66439 0.74953,1.96805 -0.58218,0.0852 -1.20536,-0.20001 -1.66398,-0.58692 -0.92453,-0.77993 -1.18061,-1.97343 0.91445,-1.38113 z"
         id="path9796"
         inkscape:connector-curvature="0"
         sodipodi:nodetypes="ccsc" />
      <path
         style="fill:#e0b340;fill-opacity:1;fill-rule:evenodd;stroke:none;stroke-width:0.07083253px;stroke-linecap:butt;stroke-linejoin:miter;stroke-opacity:1"
         d="m 390.51045,88.09473 c 2.04262,-3.98541 3.36016,0.94445 1.06546,2.79761 -0.82758,0.1211 -1.71344,-0.28426 -2.36543,-0.8343 -1.31417,-1.10871 -1.67822,-2.80529 1.29997,-1.96333 z"
         id="path9798"
         inkscape:connector-curvature="0"
         sodipodi:nodetypes="ccsc"
         inkscape:transform-center-x="-1.1433629"
         inkscape:transform-center-y="-8.8095573e-05" />
      <path
         inkscape:export-ydpi="300"
         inkscape:export-xdpi="300"
         inkscape:export-filename="C:\Users\MICRO\path1131.png"
         style="fill:#f5c6c0;fill-opacity:1;fill-rule:evenodd;stroke:#f5c6c0;stroke-width:0.72012961;stroke-linecap:butt;stroke-linejoin:miter;stroke-miterlimit:4;stroke-dasharray:none;stroke-opacity:1"
         d="m 393.44181,68.93179 c -4.15906,-12.13345 7.56342,-15.25154 12.40866,-15.37995 5.12791,-0.13588 17.57023,0.35993 17.35811,13.5104 10.09102,-4.08438 14.92081,8.98637 8.29703,10.66334 -2.13843,-0.13847 -57.13849,1.45409 -56.28312,0.83091 -3.99288,-1.82664 -1.65871,-6.99878 8.46815,-5.19319 0.58733,0.10477 -0.0254,-1.30323 0.6213,-2.20518 1.43128,-1.99974 4.84893,-4.17394 9.12987,-2.22633 z"
         id="path9800"
         inkscape:connector-curvature="0"
         sodipodi:nodetypes="cscccssc" />
    </g>
  </g>
</svg>
